<?xml version="1.0" standalone="no"?>
<!DOCTYPE svg PUBLIC "-//W3C//DTD SVG 20010904//EN"
 "http://www.w3.org/TR/2001/REC-SVG-20010904/DTD/svg10.dtd">
<svg version="1.0" xmlns="http://www.w3.org/2000/svg"
 width="3072.000000pt" height="3072.000000pt" viewBox="0 0 3072.000000 3072.000000"
 preserveAspectRatio="xMidYMid meet">

<g transform="translate(0.000000,3072.000000) scale(0.100000,-0.100000)"
fill="#000000" stroke="none">
<path d="M7675 22110 c-167 -19 -328 -103 -465 -241 -127 -129 -204 -282 -234
-465 -15 -91 -16 -568 -14 -5719 l3 -5620 28 -89 c73 -235 188 -378 397 -498
62 -35 180 -74 296 -98 93 -19 138 -20 1224 -20 761 0 1145 3 1181 11 30 6 77
14 104 18 138 23 270 77 377 156 66 49 131 134 183 240 24 50 119 272 210 495
91 223 186 452 209 510 24 58 69 167 100 243 107 258 121 315 105 438 -21 167
-100 292 -236 372 -125 73 -99 70 -698 77 -570 7 -569 7 -662 57 -75 41 -103
71 -147 163 l-41 85 2 1005 1 1005 27 70 c32 84 72 129 143 161 l53 24 1150 0
c1126 0 1153 0 1236 20 161 39 284 113 373 223 80 99 77 91 393 857 326 790
336 817 344 936 9 132 -39 262 -135 366 -64 69 -117 102 -204 129 -61 18 -117
19 -1548 19 -1432 0 -1487 1 -1546 19 -121 38 -212 111 -261 210 l-28 56 0
1035 0 1035 29 55 c42 81 72 116 123 145 l46 25 2161 0 c2109 0 2163 1 2241
20 44 11 122 40 174 66 77 38 109 61 180 133 97 97 132 157 224 381 31 74 79
191 107 260 29 69 77 186 107 260 30 74 75 185 100 245 185 452 193 477 193
583 0 151 -50 278 -147 379 -64 66 -123 104 -222 142 l-66 26 -3555 1 c-1955
1 -3582 -2 -3615 -6z"/>
<path d="M17665 22110 c-70 -12 -211 -54 -270 -80 -68 -31 -197 -158 -242
-239 -45 -80 -108 -235 -468 -1156 -36 -93 -102 -260 -145 -370 -102 -260
-185 -472 -330 -840 -64 -165 -174 -444 -243 -620 -69 -176 -155 -396 -192
-490 -37 -93 -92 -233 -122 -310 -30 -77 -92 -234 -138 -350 -45 -115 -170
-433 -278 -705 -107 -272 -266 -675 -352 -895 -86 -220 -181 -461 -210 -535
-29 -74 -113 -286 -185 -470 -73 -184 -175 -443 -227 -575 -52 -132 -131 -332
-175 -445 -44 -113 -99 -254 -123 -315 -75 -193 -284 -723 -372 -945 -47 -118
-150 -388 -230 -600 -79 -212 -182 -484 -228 -605 -240 -632 -502 -1352 -520
-1429 -52 -221 37 -474 216 -614 108 -84 133 -94 321 -139 64 -15 151 -17 725
-21 452 -2 669 0 705 8 29 6 78 15 108 20 150 23 302 100 411 209 98 98 136
175 353 716 157 392 205 511 329 815 67 164 200 492 314 775 104 258 141 331
201 389 55 54 152 115 202 128 42 10 4384 13 4456 3 96 -14 239 -129 302 -245
17 -30 82 -183 145 -340 64 -157 125 -307 137 -335 22 -50 318 -783 522 -1295
183 -457 238 -558 351 -650 117 -96 245 -147 457 -185 84 -14 167 -16 720 -13
598 4 629 5 723 26 142 32 247 80 344 160 165 134 251 331 240 547 -6 128 -27
194 -285 880 -50 132 -116 305 -147 385 -31 80 -67 172 -80 205 -13 33 -44
113 -69 178 -25 64 -67 170 -92 235 -25 64 -64 164 -87 222 -22 58 -92 233
-155 390 -63 157 -122 305 -132 330 -32 82 -184 463 -648 1620 -149 371 -322
806 -386 965 -63 160 -209 524 -324 810 -116 286 -229 567 -252 625 -23 58
-56 141 -75 185 -18 44 -166 415 -330 825 -163 410 -309 777 -325 815 -16 39
-51 126 -78 195 -28 69 -55 136 -61 150 -6 14 -45 113 -86 220 -42 107 -113
285 -157 395 -44 110 -237 590 -428 1067 -243 609 -361 891 -395 947 -80 132
-228 269 -345 319 -19 8 -66 24 -105 35 -68 20 -96 21 -1105 23 -569 1 -1057
-2 -1085 -6z m1142 -3650 c35 -21 72 -86 118 -210 16 -41 53 -136 83 -210 30
-74 76 -189 102 -255 44 -111 516 -1289 667 -1665 36 -91 74 -185 83 -210 9
-25 68 -171 131 -325 111 -275 113 -281 114 -360 0 -100 -17 -131 -100 -186
l-60 -39 -1235 2 -1235 3 -47 32 c-68 48 -88 86 -88 170 0 79 5 94 113 368 41
105 92 233 112 285 46 119 180 456 390 985 140 352 271 683 484 1220 27 66 63
158 81 205 41 105 78 166 116 191 40 26 128 26 171 -1z"/>
</g>
</svg>
